<?xml version="1.0" encoding="UTF-8" standalone="no"?>
<!DOCTYPE svg PUBLIC "-//W3C//DTD SVG 1.1//EN"
 "http://www.w3.org/Graphics/SVG/1.1/DTD/svg11.dtd">
<!-- Generated by graphviz version 14.0.1 (20251006.0113)
 -->
<!-- Title: SmartGreenhouseWorkflow Pages: 1 -->
<svg width="2155pt" height="837pt"
 viewBox="0.00 0.00 2155.00 837.00" xmlns="http://www.w3.org/2000/svg" xmlns:xlink="http://www.w3.org/1999/xlink">
<g id="graph0" class="graph" transform="scale(1 1) rotate(0) translate(25.2 811.95)">
<title>SmartGreenhouseWorkflow</title>
<polygon fill="white" stroke="none" points="-25.2,25.2 -25.2,-811.95 2130.18,-811.95 2130.18,25.2 -25.2,25.2"/>
<text xml:space="preserve" text-anchor="middle" x="1052.49" y="-759" font-family="Thonburi Bold" font-size="25.00">แผนภาพขั้นตอนการดำเนินงานระบบ Smart Greenhouse</text>
<!-- start&#45;&gt;sensors -->
<g id="edge1" class="edge">
<title>start&#45;&gt;sensors</title>
<path fill="none" stroke="#64748b" stroke-width="1.2" d="M132.82,-667C132.82,-667 186.1,-667 186.1,-667"/>
<polygon fill="#64748b" stroke="#64748b" stroke-width="1.2" points="186.1,-669.8 194.1,-667 186.1,-664.2 186.1,-669.8"/>
<text xml:space="preserve" text-anchor="middle" x="174.08" y="-670.45" font-family="Arial" font-size="9.00" fill="#334155">เริ่มรอบ</text>
</g>
<!-- sensors&#45;&gt;edge_cycle -->
<g id="edge2" class="edge">
<title>sensors&#45;&gt;edge_cycle</title>
<path fill="none" stroke="#64748b" stroke-width="1.2" d="M333.01,-667C333.01,-667 388.43,-667 388.43,-667"/>
<polygon fill="#64748b" stroke="#64748b" stroke-width="1.2" points="388.43,-669.8 396.43,-667 388.43,-664.2 388.43,-669.8"/>
<text xml:space="preserve" text-anchor="middle" x="347.97" y="-670.45" font-family="Arial" font-size="9.00" fill="#334155">อ่านค่า</text>
</g>
<!-- edge_cycle&#45;&gt;sign -->
<g id="edge3" class="edge">
<title>edge_cycle&#45;&gt;sign</title>
<path fill="none" stroke="#64748b" stroke-width="1.2" d="M580.97,-667C580.97,-667 615,-667 615,-667"/>
<polygon fill="#64748b" stroke="#64748b" stroke-width="1.2" points="615,-669.8 623,-667 615,-664.2 615,-669.8"/>
<text xml:space="preserve" text-anchor="middle" x="605.86" y="-658.45" font-family="Arial" font-size="9.00" fill="#334155">ส่งข้อมูล</text>
</g>
<!-- edge_cycle&#45;&gt;pending -->
<g id="edge22" class="edge">
<title>edge_cycle&#45;&gt;pending</title>
<path fill="none" stroke="#94a3b8" stroke-width="1.2" stroke-dasharray="5,2" d="M553.52,-641.75C553.52,-582.87 553.52,-442 553.52,-442 553.52,-442 727.71,-442 727.71,-442"/>
<polygon fill="#94a3b8" stroke="#94a3b8" stroke-width="1.2" points="727.71,-444.8 735.71,-442 727.71,-439.2 727.71,-444.8"/>
<text xml:space="preserve" text-anchor="middle" x="535.52" y="-458.23" font-family="Arial" font-size="9.00" fill="#334155">cloud ล่ม</text>
</g>
<!-- sign&#45;&gt;auth -->
<g id="edge4" class="edge">
<title>sign&#45;&gt;auth</title>
<path fill="none" stroke="#64748b" stroke-width="1.2" d="M794.33,-667C794.33,-667 828.78,-667 828.78,-667"/>
<polygon fill="#64748b" stroke="#64748b" stroke-width="1.2" points="828.78,-669.8 836.78,-667 828.78,-664.2 828.78,-669.8"/>
<text xml:space="preserve" text-anchor="middle" x="818.87" y="-658.45" font-family="Arial" font-size="9.00" fill="#334155">HTTPS</text>
</g>
<!-- auth&#45;&gt;reject_auth -->
<g id="edge6" class="edge">
<title>auth&#45;&gt;reject_auth</title>
<path fill="none" stroke="#dc2626" stroke-width="1.2" d="M934.59,-621.62C934.59,-621.62 934.59,-521.99 934.59,-521.99"/>
<polygon fill="#dc2626" stroke="#dc2626" stroke-width="1.2" points="937.39,-521.99 934.59,-513.99 931.79,-522 937.39,-521.99"/>
<text xml:space="preserve" text-anchor="middle" x="922.21" y="-575.26" font-family="Arial" font-size="9.00" fill="#334155">ไม่ผ่าน</text>
</g>
<!-- auth&#45;&gt;registration -->
<g id="edge5" class="edge">
<title>auth&#45;&gt;registration</title>
<path fill="none" stroke="#16a34a" stroke-width="1.2" d="M1030.82,-667C1030.82,-667 1060.25,-667 1060.25,-667"/>
<polygon fill="#16a34a" stroke="#16a34a" stroke-width="1.2" points="1060.25,-669.8 1068.25,-667 1060.25,-664.2 1060.25,-669.8"/>
<text xml:space="preserve" text-anchor="middle" x="1038.04" y="-670.45" font-family="Arial" font-size="9.00" fill="#334155">ผ่าน</text>
</g>
<!-- registration&#45;&gt;reject_scope -->
<g id="edge8" class="edge">
<title>registration&#45;&gt;reject_scope</title>
<path fill="none" stroke="#dc2626" stroke-width="1.2" d="M1174.58,-619.78C1174.58,-619.78 1174.58,-522.01 1174.58,-522.01"/>
<polygon fill="#dc2626" stroke="#dc2626" stroke-width="1.2" points="1177.39,-522.01 1174.59,-514.01 1171.79,-522.01 1177.39,-522.01"/>
<text xml:space="preserve" text-anchor="middle" x="1162.21" y="-574.35" font-family="Arial" font-size="9.00" fill="#334155">ไม่ผ่าน</text>
</g>
<!-- registration&#45;&gt;telemetry_store -->
<g id="edge7" class="edge">
<title>registration&#45;&gt;telemetry_store</title>
<path fill="none" stroke="#16a34a" stroke-width="1.2" d="M1278.8,-667C1278.8,-667 1307.5,-667 1307.5,-667"/>
<polygon fill="#16a34a" stroke="#16a34a" stroke-width="1.2" points="1307.5,-669.8 1315.5,-667 1307.5,-664.2 1307.5,-669.8"/>
<text xml:space="preserve" text-anchor="middle" x="1285.65" y="-670.45" font-family="Arial" font-size="9.00" fill="#334155">ผ่าน</text>
</g>
<!-- telemetry_store&#45;&gt;telemetry_end -->
<g id="edge9" class="edge">
<title>telemetry_store&#45;&gt;telemetry_end</title>
<path fill="none" stroke="#64748b" stroke-width="1.2" d="M1531.61,-667C1531.61,-667 1633.93,-667 1633.93,-667"/>
<polygon fill="#64748b" stroke="#64748b" stroke-width="1.2" points="1633.93,-669.8 1641.93,-667 1633.93,-664.2 1633.93,-669.8"/>
<text xml:space="preserve" text-anchor="middle" x="1610.89" y="-668.95" font-family="Arial" font-size="9.00" fill="#334155">202 Accepted</text>
</g>
<!-- telemetry_store&#45;&gt;future -->
<g id="edge24" class="edge">
<title>telemetry_store&#45;&gt;future</title>
<path fill="none" stroke="#c026d3" stroke-width="1.2" stroke-dasharray="5,2" d="M1467.09,-636.03C1467.09,-523.92 1467.09,-142.13 1467.09,-44.84"/>
</g>
<!-- telemetry_end&#45;&gt;start -->
<g id="edge10" class="edge">
<title>telemetry_end&#45;&gt;start</title>
<path fill="none" stroke="#94a3b8" stroke-width="1.2" stroke-dasharray="5,2" d="M1689.58,-712.88C1689.58,-724.12 1689.58,-733 1689.58,-733 1689.58,-733 84.59,-733 84.59,-733 84.59,-733 84.59,-725.17 84.59,-725.17"/>
<polygon fill="#94a3b8" stroke="#94a3b8" stroke-width="1.2" points="87.39,-725.17 84.59,-717.17 81.79,-725.17 87.39,-725.17"/>
<text xml:space="preserve" text-anchor="middle" x="867.35" y="-736.45" font-family="Arial" font-size="9.00" fill="#334155">ทุก ~15 วินาที</text>
</g>
<!-- operator&#45;&gt;command_check -->
<g id="edge11" class="edge">
<title>operator&#45;&gt;command_check</title>
<path fill="none" stroke="#64748b" stroke-width="1.2" d="M169.5,-207C169.5,-207 217.1,-207 217.1,-207"/>
<polygon fill="#64748b" stroke="#64748b" stroke-width="1.2" points="217.1,-209.8 225.1,-207 217.1,-204.2 217.1,-209.8"/>
<text xml:space="preserve" text-anchor="middle" x="183.17" y="-210.45" font-family="Arial" font-size="9.00" fill="#334155">คำสั่ง</text>
</g>
<!-- command_check&#45;&gt;command_reject -->
<g id="edge13" class="edge">
<title>command_check&#45;&gt;command_reject</title>
<path fill="none" stroke="#dc2626" stroke-width="1.2" d="M339.58,-158.05C339.58,-158.05 339.58,-51.97 339.58,-51.97"/>
<polygon fill="#dc2626" stroke="#dc2626" stroke-width="1.2" points="342.39,-51.97 339.59,-43.97 336.79,-51.97 342.39,-51.97"/>
<text xml:space="preserve" text-anchor="middle" x="327.21" y="-108.46" font-family="Arial" font-size="9.00" fill="#334155">ไม่ผ่าน</text>
</g>
<!-- command_check&#45;&gt;command_queue -->
<g id="edge12" class="edge">
<title>command_check&#45;&gt;command_queue</title>
<path fill="none" stroke="#16a34a" stroke-width="1.2" d="M452.13,-207C452.13,-207 516.2,-207 516.2,-207"/>
<polygon fill="#16a34a" stroke="#16a34a" stroke-width="1.2" points="516.2,-209.8 524.2,-207 516.2,-204.2 516.2,-209.8"/>
<text xml:space="preserve" text-anchor="middle" x="476.67" y="-210.45" font-family="Arial" font-size="9.00" fill="#334155">ผ่าน</text>
</g>
<!-- command_queue&#45;&gt;poll -->
<g id="edge14" class="edge">
<title>command_queue&#45;&gt;poll</title>
<path fill="none" stroke="#64748b" stroke-width="1.2" d="M693.08,-207C693.08,-207 761.38,-207 761.38,-207"/>
<polygon fill="#64748b" stroke="#64748b" stroke-width="1.2" points="761.38,-209.8 769.38,-207 761.38,-204.2 761.38,-209.8"/>
<text xml:space="preserve" text-anchor="middle" x="740.54" y="-198.45" font-family="Arial" font-size="9.00" fill="#334155">รอ agent poll</text>
</g>
<!-- poll&#45;&gt;local_check -->
<g id="edge15" class="edge">
<title>poll&#45;&gt;local_check</title>
<path fill="none" stroke="#64748b" stroke-width="1.2" d="M957.68,-207C957.68,-207 990.87,-207 990.87,-207"/>
<polygon fill="#64748b" stroke="#64748b" stroke-width="1.2" points="990.87,-209.8 998.87,-207 990.87,-204.2 990.87,-209.8"/>
<text xml:space="preserve" text-anchor="middle" x="974.27" y="-198.45" font-family="Arial" font-size="9.00" fill="#334155">dispatched</text>
</g>
<!-- local_check&#45;&gt;local_fail -->
<g id="edge17" class="edge">
<title>local_check&#45;&gt;local_fail</title>
<path fill="none" stroke="#dc2626" stroke-width="1.2" d="M1114.59,-158.05C1114.59,-158.05 1114.59,-51.97 1114.59,-51.97"/>
<polygon fill="#dc2626" stroke="#dc2626" stroke-width="1.2" points="1117.39,-51.97 1114.59,-43.97 1111.79,-51.97 1117.39,-51.97"/>
<text xml:space="preserve" text-anchor="middle" x="1081.96" y="-108.46" font-family="Arial" font-size="9.00" fill="#334155">ปฏิเสธ / หมดอายุ</text>
</g>
<!-- local_check&#45;&gt;relay -->
<g id="edge16" class="edge">
<title>local_check&#45;&gt;relay</title>
<path fill="none" stroke="#16a34a" stroke-width="1.2" d="M1228.57,-207C1228.57,-207 1241.02,-207 1241.02,-207"/>
<polygon fill="#16a34a" stroke="#16a34a" stroke-width="1.2" points="1241.02,-209.8 1249.02,-207 1241.02,-204.2 1241.02,-209.8"/>
<text xml:space="preserve" text-anchor="middle" x="1241.92" y="-198.45" font-family="Arial" font-size="9.00" fill="#334155">อนุญาต</text>
</g>
<!-- relay&#45;&gt;ack -->
<g id="edge18" class="edge">
<title>relay&#45;&gt;ack</title>
<path fill="none" stroke="#64748b" stroke-width="1.2" d="M1438.13,-207C1438.13,-207 1486.02,-207 1486.02,-207"/>
<polygon fill="#64748b" stroke="#64748b" stroke-width="1.2" points="1486.02,-209.8 1494.02,-207 1486.02,-204.2 1486.02,-209.8"/>
<text xml:space="preserve" text-anchor="middle" x="1462.08" y="-198.45" font-family="Arial" font-size="9.00" fill="#334155">ผล hardware</text>
</g>
<!-- ack&#45;&gt;audit -->
<g id="edge19" class="edge">
<title>ack&#45;&gt;audit</title>
<path fill="none" stroke="#64748b" stroke-width="1.2" d="M1653.12,-207C1653.12,-207 1721.05,-207 1721.05,-207"/>
<polygon fill="#64748b" stroke="#64748b" stroke-width="1.2" points="1721.05,-209.8 1729.05,-207 1721.05,-204.2 1721.05,-209.8"/>
<text xml:space="preserve" text-anchor="middle" x="1698.33" y="-198.45" font-family="Arial" font-size="9.00" fill="#334155">POST ACK</text>
</g>
<!-- audit&#45;&gt;operator -->
<g id="edge21" class="edge">
<title>audit&#45;&gt;operator</title>
<path fill="none" stroke="#94a3b8" stroke-width="1.2" stroke-dasharray="5,2" d="M1821.45,-238.15C1821.45,-276.85 1821.45,-338 1821.45,-338 1821.45,-338 150.8,-338 150.8,-338 150.8,-338 150.8,-237.12 150.8,-237.12"/>
<polygon fill="#94a3b8" stroke="#94a3b8" stroke-width="1.2" points="153.6,-237.12 150.8,-229.12 148,-237.12 153.6,-237.12"/>
<text xml:space="preserve" text-anchor="middle" x="961.98" y="-339.95" font-family="Arial" font-size="9.00" fill="#334155">GET history</text>
</g>
<!-- audit&#45;&gt;command_end -->
<g id="edge20" class="edge">
<title>audit&#45;&gt;command_end</title>
<path fill="none" stroke="#64748b" stroke-width="1.2" d="M1908.27,-207C1908.27,-207 2003.81,-207 2003.81,-207"/>
<polygon fill="#64748b" stroke="#64748b" stroke-width="1.2" points="2003.81,-209.8 2011.81,-207 2003.81,-204.2 2003.81,-209.8"/>
<text xml:space="preserve" text-anchor="middle" x="1933.54" y="-210.45" font-family="Arial" font-size="9.00" fill="#334155">สถานะล่าสุด</text>
</g>
<!-- pending&#45;&gt;sign -->
<g id="edge23" class="edge">
<title>pending&#45;&gt;sign</title>
<path fill="none" stroke="#94a3b8" stroke-width="1.2" stroke-dasharray="5,2" d="M765.77,-464.54C765.77,-464.54 765.77,-631.59 765.77,-631.59"/>
<polygon fill="#94a3b8" stroke="#94a3b8" stroke-width="1.2" points="762.97,-631.59 765.77,-639.59 768.57,-631.59 762.97,-631.59"/>
<text xml:space="preserve" text-anchor="middle" x="756.77" y="-550.01" font-family="Arial" font-size="9.00" fill="#334155">retry</text>
</g>
<!-- start -->
<g id="node1" class="node">
<title>start</title>
<ellipse fill="#dcfce7" stroke="#16a34a" stroke-width="1.2" cx="84.59" cy="-667.14" rx="47.85" ry="47.85"/>
<text xml:space="preserve" text-anchor="middle" x="84.59" y="-671.69" font-family="Thonburi" font-size="11.00">เริ่ม</text>
<text xml:space="preserve" text-anchor="middle" x="84.59" y="-656.69" font-family="Thonburi" font-size="11.00">รอบทำงาน</text>
</g>
<!-- sensors -->
<g id="node2" class="node">
<title>sensors</title>
<path fill="#ccfbf1" stroke="#0f766e" stroke-width="1.2" d="M320.67,-692.28C320.67,-692.28 208.5,-692.28 208.5,-692.28 202.5,-692.28 196.5,-686.28 196.5,-680.28 196.5,-680.28 196.5,-654 196.5,-654 196.5,-648 202.5,-642 208.5,-642 208.5,-642 320.67,-642 320.67,-642 326.67,-642 332.67,-648 332.67,-654 332.67,-654 332.67,-680.28 332.67,-680.28 332.67,-686.28 326.67,-692.28 320.67,-692.28"/>
<text xml:space="preserve" text-anchor="start" x="218.46" y="-674.19" font-family="Thonburi" font-size="11.00"> &#160;&#160;&#160;</text>
<text xml:space="preserve" text-anchor="start" x="233.46" y="-674.19" font-family="Thonburi" font-weight="bold" font-size="11.00">Sensor / Relay</text>
<text xml:space="preserve" text-anchor="start" x="222.59" y="-663.19" font-family="Thonburi" font-size="11.00"> &#160;&#160;&#160;อ่านค่าเซนเซอร์</text>
<text xml:space="preserve" text-anchor="start" x="209.46" y="-652.19" font-family="Thonburi" font-size="11.00"> &#160;&#160;&#160;ตรวจสถานะอุปกรณ์ &#160;</text>
</g>
<!-- edge_cycle -->
<g id="node3" class="node">
<title>edge_cycle</title>
<path fill="#dbeafe" stroke="#2563eb" stroke-width="1.2" d="M568.54,-692.28C568.54,-692.28 410.62,-692.28 410.62,-692.28 404.62,-692.28 398.62,-686.28 398.62,-680.28 398.62,-680.28 398.62,-654 398.62,-654 398.62,-648 404.62,-642 410.62,-642 410.62,-642 568.54,-642 568.54,-642 574.54,-642 580.54,-648 580.54,-654 580.54,-654 580.54,-680.28 580.54,-680.28 580.54,-686.28 574.54,-692.28 568.54,-692.28"/>
<text xml:space="preserve" text-anchor="start" x="449.08" y="-674.19" font-family="Thonburi" font-size="11.00"> &#160;&#160;&#160;</text>
<text xml:space="preserve" text-anchor="start" x="464.08" y="-674.19" font-family="Thonburi" font-weight="bold" font-size="11.00">Raspberry Pi</text>
<text xml:space="preserve" text-anchor="start" x="450.96" y="-663.19" font-family="Thonburi" font-size="11.00"> &#160;&#160;&#160;Edge Agent</text>
<text xml:space="preserve" text-anchor="start" x="411.58" y="-652.19" font-family="Thonburi" font-size="11.00"> &#160;&#160;&#160;local safety + auto policy &#160;</text>
</g>
<!-- sign -->
<g id="node4" class="node">
<title>sign</title>
<path fill="#ede9fe" stroke="#7c3aed" stroke-width="1.2" d="M781.8,-692.28C781.8,-692.28 637.38,-692.28 637.38,-692.28 631.38,-692.28 625.38,-686.28 625.38,-680.28 625.38,-680.28 625.38,-654 625.38,-654 625.38,-648 631.38,-642 637.38,-642 637.38,-642 781.8,-642 781.8,-642 787.8,-642 793.8,-648 793.8,-654 793.8,-654 793.8,-680.28 793.8,-680.28 793.8,-686.28 787.8,-692.28 781.8,-692.28"/>
<text xml:space="preserve" text-anchor="start" x="664.59" y="-674.19" font-family="Thonburi" font-size="11.00"> &#160;&#160;&#160;</text>
<text xml:space="preserve" text-anchor="start" x="679.59" y="-674.19" font-family="Thonburi" font-weight="bold" font-size="11.00">Signed HTTPS</text>
<text xml:space="preserve" text-anchor="start" x="658.96" y="-663.19" font-family="Thonburi" font-size="11.00"> &#160;&#160;&#160;HMAC&#45;SHA&#45;256</text>
<text xml:space="preserve" text-anchor="start" x="638.34" y="-652.19" font-family="Thonburi" font-size="11.00"> &#160;&#160;&#160;timestamp + raw body &#160;</text>
</g>
<!-- auth -->
<g id="node5" class="node">
<title>auth</title>
<path fill="#fef3c7" stroke="#d97706" stroke-width="1.2" d="M923.74,-707.01C923.74,-707.01 850.25,-672.27 850.25,-672.27 844.83,-669.7 844.83,-664.58 850.25,-662.01 850.25,-662.01 923.74,-627.27 923.74,-627.27 929.16,-624.7 940.01,-624.7 945.43,-627.27 945.43,-627.27 1018.92,-662.01 1018.92,-662.01 1024.34,-664.58 1024.34,-669.7 1018.92,-672.27 1018.92,-672.27 945.43,-707.01 945.43,-707.01 940.01,-709.58 929.16,-709.58 923.74,-707.01"/>
<text xml:space="preserve" text-anchor="middle" x="934.59" y="-679.19" font-family="Thonburi" font-size="11.00">ตรวจสอบ</text>
<text xml:space="preserve" text-anchor="middle" x="934.59" y="-664.19" font-family="Thonburi" font-size="11.00">agent header</text>
<text xml:space="preserve" text-anchor="middle" x="934.59" y="-649.19" font-family="Thonburi" font-size="11.00">และ signature</text>
</g>
<!-- reject_auth -->
<g id="node6" class="node">
<title>reject_auth</title>
<path fill="#fee2e2" stroke="#dc2626" stroke-width="1.2" d="M968.55,-511.78C968.55,-511.78 900.62,-511.78 900.62,-511.78 894.62,-511.78 888.62,-505.78 888.62,-499.78 888.62,-499.78 888.62,-484.5 888.62,-484.5 888.62,-478.5 894.62,-472.5 900.62,-472.5 900.62,-472.5 968.55,-472.5 968.55,-472.5 974.55,-472.5 980.55,-478.5 980.55,-484.5 980.55,-484.5 980.55,-499.78 980.55,-499.78 980.55,-505.78 974.55,-511.78 968.55,-511.78"/>
<text xml:space="preserve" text-anchor="start" x="910.59" y="-493.69" font-family="Thonburi" font-size="11.00"> &#160;&#160;&#160;</text>
<text xml:space="preserve" text-anchor="start" x="925.59" y="-493.69" font-family="Thonburi" font-weight="bold" font-size="11.00">Reject</text>
<text xml:space="preserve" text-anchor="start" x="901.59" y="-482.69" font-family="Thonburi" font-size="11.00">401 / 400 &#160;</text>
</g>
<!-- registration -->
<g id="node7" class="node">
<title>registration</title>
<path fill="#fef3c7" stroke="#d97706" stroke-width="1.2" d="M1163.65,-708.99C1163.65,-708.99 1082.11,-672.09 1082.11,-672.09 1076.64,-669.61 1076.64,-664.67 1082.11,-662.19 1082.11,-662.19 1163.65,-625.29 1163.65,-625.29 1169.12,-622.81 1180.05,-622.81 1185.52,-625.29 1185.52,-625.29 1267.06,-662.19 1267.06,-662.19 1272.53,-664.67 1272.53,-669.61 1267.06,-672.09 1267.06,-672.09 1185.52,-708.99 1185.52,-708.99 1180.05,-711.47 1169.12,-711.47 1163.65,-708.99"/>
<text xml:space="preserve" text-anchor="middle" x="1174.58" y="-679.19" font-family="Thonburi" font-size="11.00">ตรวจ agent</text>
<text xml:space="preserve" text-anchor="middle" x="1174.58" y="-664.19" font-family="Thonburi" font-size="11.00">และ greenhouse</text>
<text xml:space="preserve" text-anchor="middle" x="1174.58" y="-649.19" font-family="Thonburi" font-size="11.00">ที่ลงทะเบียน</text>
</g>
<!-- reject_scope -->
<g id="node8" class="node">
<title>reject_scope</title>
<path fill="#fee2e2" stroke="#dc2626" stroke-width="1.2" d="M1208.54,-511.78C1208.54,-511.78 1140.62,-511.78 1140.62,-511.78 1134.62,-511.78 1128.62,-505.78 1128.62,-499.78 1128.62,-499.78 1128.62,-484.5 1128.62,-484.5 1128.62,-478.5 1134.62,-472.5 1140.62,-472.5 1140.62,-472.5 1208.54,-472.5 1208.54,-472.5 1214.54,-472.5 1220.54,-478.5 1220.54,-484.5 1220.54,-484.5 1220.54,-499.78 1220.54,-499.78 1220.54,-505.78 1214.54,-511.78 1208.54,-511.78"/>
<text xml:space="preserve" text-anchor="start" x="1150.58" y="-493.69" font-family="Thonburi" font-size="11.00"> &#160;&#160;&#160;</text>
<text xml:space="preserve" text-anchor="start" x="1165.58" y="-493.69" font-family="Thonburi" font-weight="bold" font-size="11.00">Reject</text>
<text xml:space="preserve" text-anchor="start" x="1141.58" y="-482.69" font-family="Thonburi" font-size="11.00">403 / 400 &#160;</text>
</g>
<!-- telemetry_store -->
<g id="node9" class="node">
<title>telemetry_store</title>
<path fill="#dcfce7" stroke="#16a34a" stroke-width="1.2" d="M1519.3,-697.78C1519.3,-697.78 1329.88,-697.78 1329.88,-697.78 1323.88,-697.78 1317.88,-691.78 1317.88,-685.78 1317.88,-685.78 1317.88,-648.5 1317.88,-648.5 1317.88,-642.5 1323.88,-636.5 1329.88,-636.5 1329.88,-636.5 1519.3,-636.5 1519.3,-636.5 1525.3,-636.5 1531.3,-642.5 1531.3,-648.5 1531.3,-648.5 1531.3,-685.78 1531.3,-685.78 1531.3,-691.78 1525.3,-697.78 1519.3,-697.78"/>
<text xml:space="preserve" text-anchor="start" x="1366.09" y="-679.69" font-family="Thonburi" font-size="11.00"> &#160;&#160;&#160;</text>
<text xml:space="preserve" text-anchor="start" x="1381.09" y="-679.69" font-family="Thonburi" font-weight="bold" font-size="11.00">Cloud Worker + D1</text>
<text xml:space="preserve" text-anchor="start" x="1369.46" y="-668.69" font-family="Thonburi" font-size="11.00"> &#160;&#160;&#160;validate telemetry</text>
<text xml:space="preserve" text-anchor="start" x="1379.21" y="-657.69" font-family="Thonburi" font-size="11.00"> &#160;&#160;&#160;store readings</text>
<text xml:space="preserve" text-anchor="start" x="1330.84" y="-646.69" font-family="Thonburi" font-size="11.00"> &#160;&#160;&#160;update agent/device freshness &#160;</text>
</g>
<!-- telemetry_end -->
<g id="node10" class="node">
<title>telemetry_end</title>
<ellipse fill="#dcfce7" stroke="#16a34a" stroke-width="1.2" cx="1689.58" cy="-667.14" rx="41.4" ry="41.4"/>
<ellipse fill="none" stroke="#16a34a" stroke-width="1.2" cx="1689.58" cy="-667.14" rx="45.4" ry="45.4"/>
<text xml:space="preserve" text-anchor="middle" x="1689.58" y="-671.69" font-family="Thonburi" font-size="11.00">รอรอบ</text>
<text xml:space="preserve" text-anchor="middle" x="1689.58" y="-656.69" font-family="Thonburi" font-size="11.00">ถัดไป</text>
</g>
<!-- operator -->
<g id="node11" class="node">
<title>operator</title>
<path fill="#f1f5f9" stroke="#475569" stroke-width="1.2" d="M157.17,-226.78C157.17,-226.78 12,-226.78 12,-226.78 6,-226.78 0,-220.78 0,-214.78 0,-214.78 0,-199.5 0,-199.5 0,-193.5 6,-187.5 12,-187.5 12,-187.5 157.17,-187.5 157.17,-187.5 163.17,-187.5 169.17,-193.5 169.17,-199.5 169.17,-199.5 169.17,-214.78 169.17,-214.78 169.17,-220.78 163.17,-226.78 157.17,-226.78"/>
<text xml:space="preserve" text-anchor="start" x="24.96" y="-208.69" font-family="Thonburi" font-size="11.00"> &#160;&#160;&#160;</text>
<text xml:space="preserve" text-anchor="start" x="39.96" y="-208.69" font-family="Thonburi" font-weight="bold" font-size="11.00">Operator / Browser</text>
<text xml:space="preserve" text-anchor="start" x="12.96" y="-197.69" font-family="Thonburi" font-size="11.00"> &#160;&#160;&#160;POST device command &#160;</text>
</g>
<!-- command_check -->
<g id="node12" class="node">
<title>command_check</title>
<path fill="#fef3c7" stroke="#d97706" stroke-width="1.2" d="M328.58,-250.95C328.58,-250.95 238.99,-211.93 238.99,-211.93 233.49,-209.54 233.49,-204.74 238.99,-202.35 238.99,-202.35 328.58,-163.33 328.58,-163.33 334.08,-160.94 345.09,-160.94 350.59,-163.33 350.59,-163.33 440.18,-202.35 440.18,-202.35 445.68,-204.74 445.68,-209.54 440.18,-211.93 440.18,-211.93 350.59,-250.95 350.59,-250.95 345.09,-253.34 334.08,-253.34 328.58,-250.95"/>
<text xml:space="preserve" text-anchor="middle" x="339.58" y="-219.19" font-family="Thonburi" font-size="11.00">ตรวจ role +</text>
<text xml:space="preserve" text-anchor="middle" x="339.58" y="-204.19" font-family="Thonburi" font-size="11.00">idempotency +</text>
<text xml:space="preserve" text-anchor="middle" x="339.58" y="-189.19" font-family="Thonburi" font-size="11.00">freshness + policy</text>
</g>
<!-- command_reject -->
<g id="node13" class="node">
<title>command_reject</title>
<path fill="#fee2e2" stroke="#dc2626" stroke-width="1.2" d="M391.54,-41.78C391.54,-41.78 287.62,-41.78 287.62,-41.78 281.62,-41.78 275.62,-35.78 275.62,-29.78 275.62,-29.78 275.62,-14.5 275.62,-14.5 275.62,-8.5 281.62,-2.5 287.62,-2.5 287.62,-2.5 391.54,-2.5 391.54,-2.5 397.54,-2.5 403.54,-8.5 403.54,-14.5 403.54,-14.5 403.54,-29.78 403.54,-29.78 403.54,-35.78 397.54,-41.78 391.54,-41.78"/>
<text xml:space="preserve" text-anchor="start" x="312.96" y="-23.69" font-family="Thonburi" font-size="11.00"> &#160;&#160;&#160;</text>
<text xml:space="preserve" text-anchor="start" x="327.96" y="-23.69" font-family="Thonburi" font-weight="bold" font-size="11.00">ไม่เข้าคิว</text>
<text xml:space="preserve" text-anchor="start" x="288.58" y="-12.69" font-family="Thonburi" font-size="11.00">400 / 403 / 409 &#160;</text>
</g>
<!-- command_queue -->
<g id="node14" class="node">
<title>command_queue</title>
<path fill="#cffafe" stroke="#0891b2" stroke-width="1.2" d="M680.67,-237.78C680.67,-237.78 538.5,-237.78 538.5,-237.78 532.5,-237.78 526.5,-231.78 526.5,-225.78 526.5,-225.78 526.5,-188.5 526.5,-188.5 526.5,-182.5 532.5,-176.5 538.5,-176.5 538.5,-176.5 680.67,-176.5 680.67,-176.5 686.67,-176.5 692.67,-182.5 692.67,-188.5 692.67,-188.5 692.67,-225.78 692.67,-225.78 692.67,-231.78 686.67,-237.78 680.67,-237.78"/>
<text xml:space="preserve" text-anchor="start" x="557.46" y="-219.69" font-family="Thonburi" font-size="11.00"> &#160;&#160;&#160;</text>
<text xml:space="preserve" text-anchor="start" x="572.46" y="-219.69" font-family="Thonburi" font-weight="bold" font-size="11.00">Queue command</text>
<text xml:space="preserve" text-anchor="start" x="553.34" y="-208.69" font-family="Thonburi" font-size="11.00"> &#160;&#160;&#160;device_commands</text>
<text xml:space="preserve" text-anchor="start" x="558.59" y="-197.69" font-family="Thonburi" font-size="11.00"> &#160;&#160;&#160;requested event</text>
<text xml:space="preserve" text-anchor="start" x="539.46" y="-186.69" font-family="Thonburi" font-size="11.00"> &#160;&#160;&#160;expiry + correlation ID &#160;</text>
</g>
<!-- poll -->
<g id="node15" class="node">
<title>poll</title>
<path fill="#dbeafe" stroke="#2563eb" stroke-width="1.2" d="M945.42,-232.28C945.42,-232.28 783.75,-232.28 783.75,-232.28 777.75,-232.28 771.75,-226.28 771.75,-220.28 771.75,-220.28 771.75,-194 771.75,-194 771.75,-188 777.75,-182 783.75,-182 783.75,-182 945.42,-182 945.42,-182 951.42,-182 957.42,-188 957.42,-194 957.42,-194 957.42,-220.28 957.42,-220.28 957.42,-226.28 951.42,-232.28 945.42,-232.28"/>
<text xml:space="preserve" text-anchor="start" x="812.46" y="-214.19" font-family="Thonburi" font-size="11.00"> &#160;&#160;&#160;</text>
<text xml:space="preserve" text-anchor="start" x="827.46" y="-214.19" font-family="Thonburi" font-weight="bold" font-size="11.00">Edge Agent polls</text>
<text xml:space="preserve" text-anchor="start" x="784.71" y="-203.19" font-family="Thonburi" font-size="11.00"> &#160;&#160;&#160;GET /api/agent/commands</text>
<text xml:space="preserve" text-anchor="start" x="786.96" y="-192.19" font-family="Thonburi" font-size="11.00"> &#160;&#160;&#160;mark dispatched + event &#160;</text>
</g>
<!-- local_check -->
<g id="node16" class="node">
<title>local_check</title>
<path fill="#fef3c7" stroke="#d97706" stroke-width="1.2" d="M1103.56,-251C1103.56,-251 1012.63,-211.88 1012.63,-211.88 1007.12,-209.51 1007.12,-204.77 1012.63,-202.4 1012.63,-202.4 1103.56,-163.28 1103.56,-163.28 1109.07,-160.91 1120.1,-160.91 1125.61,-163.28 1125.61,-163.28 1216.54,-202.4 1216.54,-202.4 1222.05,-204.77 1222.05,-209.51 1216.54,-211.88 1216.54,-211.88 1125.61,-251 1125.61,-251 1120.1,-253.37 1109.07,-253.37 1103.56,-251"/>
<text xml:space="preserve" text-anchor="middle" x="1114.59" y="-219.19" font-family="Thonburi" font-size="11.00">ตรวจ local policy</text>
<text xml:space="preserve" text-anchor="middle" x="1114.59" y="-204.19" font-family="Thonburi" font-size="11.00">expiry + cooldown</text>
<text xml:space="preserve" text-anchor="middle" x="1114.59" y="-189.19" font-family="Thonburi" font-size="11.00">manualAllowed</text>
</g>
<!-- local_fail -->
<g id="node17" class="node">
<title>local_fail</title>
<path fill="#fee2e2" stroke="#dc2626" stroke-width="1.2" d="M1167.3,-41.78C1167.3,-41.78 1061.88,-41.78 1061.88,-41.78 1055.88,-41.78 1049.88,-35.78 1049.88,-29.78 1049.88,-29.78 1049.88,-14.5 1049.88,-14.5 1049.88,-8.5 1055.88,-2.5 1061.88,-2.5 1061.88,-2.5 1167.3,-2.5 1167.3,-2.5 1173.3,-2.5 1179.3,-8.5 1179.3,-14.5 1179.3,-14.5 1179.3,-29.78 1179.3,-29.78 1179.3,-35.78 1173.3,-41.78 1167.3,-41.78"/>
<text xml:space="preserve" text-anchor="start" x="1078.96" y="-23.69" font-family="Thonburi" font-size="11.00"> &#160;&#160;&#160;</text>
<text xml:space="preserve" text-anchor="start" x="1093.96" y="-23.69" font-family="Thonburi" font-weight="bold" font-size="11.00">Failed ACK</text>
<text xml:space="preserve" text-anchor="start" x="1062.84" y="-12.69" font-family="Thonburi" font-size="11.00">เหตุผลความปลอดภัย &#160;</text>
</g>
<!-- relay -->
<g id="node18" class="node">
<title>relay</title>
<path fill="#ccfbf1" stroke="#0f766e" stroke-width="1.2" d="M1425.79,-232.28C1425.79,-232.28 1263.37,-232.28 1263.37,-232.28 1257.37,-232.28 1251.37,-226.28 1251.37,-220.28 1251.37,-220.28 1251.37,-194 1251.37,-194 1251.37,-188 1257.37,-182 1263.37,-182 1263.37,-182 1425.79,-182 1425.79,-182 1431.79,-182 1437.79,-188 1437.79,-194 1437.79,-194 1437.79,-220.28 1437.79,-220.28 1437.79,-226.28 1431.79,-232.28 1425.79,-232.28"/>
<text xml:space="preserve" text-anchor="start" x="1305.58" y="-214.19" font-family="Thonburi" font-size="11.00"> &#160;&#160;&#160;</text>
<text xml:space="preserve" text-anchor="start" x="1320.58" y="-214.19" font-family="Thonburi" font-weight="bold" font-size="11.00">Relay Driver</text>
<text xml:space="preserve" text-anchor="start" x="1284.96" y="-203.19" font-family="Thonburi" font-size="11.00"> &#160;&#160;&#160;turn_on / turn_off</text>
<text xml:space="preserve" text-anchor="start" x="1264.33" y="-192.19" font-family="Thonburi" font-size="11.00"> &#160;&#160;&#160;emergency_stop → all off &#160;</text>
</g>
<!-- ack -->
<g id="node19" class="node">
<title>ack</title>
<path fill="#ede9fe" stroke="#7c3aed" stroke-width="1.2" d="M1640.8,-232.28C1640.8,-232.28 1508.38,-232.28 1508.38,-232.28 1502.38,-232.28 1496.38,-226.28 1496.38,-220.28 1496.38,-220.28 1496.38,-194 1496.38,-194 1496.38,-188 1502.38,-182 1508.38,-182 1508.38,-182 1640.8,-182 1640.8,-182 1646.8,-182 1652.8,-188 1652.8,-194 1652.8,-194 1652.8,-220.28 1652.8,-220.28 1652.8,-226.28 1646.8,-232.28 1640.8,-232.28"/>
<text xml:space="preserve" text-anchor="start" x="1535.96" y="-214.19" font-family="Thonburi" font-size="11.00"> &#160;&#160;&#160;</text>
<text xml:space="preserve" text-anchor="start" x="1550.96" y="-214.19" font-family="Thonburi" font-weight="bold" font-size="11.00">Signed ACK</text>
<text xml:space="preserve" text-anchor="start" x="1509.34" y="-203.19" font-family="Thonburi" font-size="11.00"> &#160;&#160;&#160;acknowledged / failed</text>
<text xml:space="preserve" text-anchor="start" x="1522.46" y="-192.19" font-family="Thonburi" font-size="11.00"> &#160;&#160;&#160;reportedStatus &#160;</text>
</g>
<!-- audit -->
<g id="node20" class="node">
<title>audit</title>
<path fill="#dcfce7" stroke="#16a34a" stroke-width="1.2" d="M1895.92,-237.78C1895.92,-237.78 1743.25,-237.78 1743.25,-237.78 1737.25,-237.78 1731.25,-231.78 1731.25,-225.78 1731.25,-225.78 1731.25,-188.5 1731.25,-188.5 1731.25,-182.5 1737.25,-176.5 1743.25,-176.5 1743.25,-176.5 1895.92,-176.5 1895.92,-176.5 1901.92,-176.5 1907.92,-182.5 1907.92,-188.5 1907.92,-188.5 1907.92,-225.78 1907.92,-225.78 1907.92,-231.78 1901.92,-237.78 1895.92,-237.78"/>
<text xml:space="preserve" text-anchor="start" x="1761.09" y="-219.69" font-family="Thonburi" font-size="11.00"> &#160;&#160;&#160;</text>
<text xml:space="preserve" text-anchor="start" x="1776.09" y="-219.69" font-family="Thonburi" font-weight="bold" font-size="11.00">Cloud Worker + D1</text>
<text xml:space="preserve" text-anchor="start" x="1749.84" y="-208.69" font-family="Thonburi" font-size="11.00"> &#160;&#160;&#160;update command state</text>
<text xml:space="preserve" text-anchor="start" x="1756.21" y="-197.69" font-family="Thonburi" font-size="11.00"> &#160;&#160;&#160;update device status</text>
<text xml:space="preserve" text-anchor="start" x="1744.21" y="-186.69" font-family="Thonburi" font-size="11.00"> &#160;&#160;&#160;append command event &#160;</text>
</g>
<!-- command_end -->
<g id="node21" class="node">
<title>command_end</title>
<ellipse fill="#dcfce7" stroke="#16a34a" stroke-width="1.2" cx="2059.59" cy="-207.14" rx="41.4" ry="41.4"/>
<ellipse fill="none" stroke="#16a34a" stroke-width="1.2" cx="2059.59" cy="-207.14" rx="45.4" ry="45.4"/>
<text xml:space="preserve" text-anchor="middle" x="2059.59" y="-211.69" font-family="Thonburi" font-size="11.00">แสดงผล</text>
<text xml:space="preserve" text-anchor="middle" x="2059.59" y="-196.69" font-family="Thonburi" font-size="11.00">สถานะ</text>
</g>
<!-- pending -->
<g id="node22" class="node">
<title>pending</title>
<polygon fill="#f8fafc" stroke="#94a3b8" stroke-width="1.2" points="935.42,-464.28 737.75,-464.28 737.75,-420 941.42,-420 941.42,-458.28 935.42,-464.28"/>
<polyline fill="none" stroke="#94a3b8" stroke-width="1.2" points="935.42,-464.28 935.42,-458.28"/>
<polyline fill="none" stroke="#94a3b8" stroke-width="1.2" points="941.42,-458.28 935.42,-458.28"/>
<text xml:space="preserve" text-anchor="start" x="783.71" y="-448.09" font-family="Thonburi" font-size="9.00" fill="#475569"> &#160;&#160;&#160;</text>
<text xml:space="preserve" text-anchor="start" x="795.71" y="-448.09" font-family="Thonburi" font-weight="bold" font-size="9.00" fill="#475569">Offline / network error</text>
<text xml:space="preserve" text-anchor="start" x="750.71" y="-439.09" font-family="Thonburi" font-size="9.00" fill="#475569"> &#160;&#160;&#160;Pi เก็บ outbound queue ใน local SQLite</text>
<text xml:space="preserve" text-anchor="start" x="785.96" y="-430.09" font-family="Thonburi" font-size="9.00" fill="#475569"> &#160;&#160;&#160;แล้วส่งซ้ำเมื่อเชื่อมต่อได้ &#160;</text>
</g>
<!-- future -->
<g id="node23" class="node">
<title>future</title>
<polygon fill="#fdf4ff" stroke="#c026d3" stroke-width="1.2" stroke-dasharray="5,2" points="1590.29,-44.28 1382.87,-44.28 1382.87,0 1596.29,0 1596.29,-38.28 1590.29,-44.28"/>
<polyline fill="none" stroke="#c026d3" stroke-width="1.2" stroke-dasharray="5,2" points="1590.29,-44.28 1590.29,-38.28"/>
<polyline fill="none" stroke="#c026d3" stroke-width="1.2" stroke-dasharray="5,2" points="1596.29,-38.28 1590.29,-38.28"/>
<text xml:space="preserve" text-anchor="start" x="1433.71" y="-28.09" font-family="Thonburi" font-size="9.00" fill="#701a75"> &#160;&#160;&#160;</text>
<text xml:space="preserve" text-anchor="start" x="1445.71" y="-28.09" font-family="Thonburi" font-weight="bold" font-size="9.00" fill="#701a75">DETECTIONS / ALERTS</text>
<text xml:space="preserve" text-anchor="start" x="1435.96" y="-19.09" font-family="Thonburi" font-size="9.00" fill="#701a75"> &#160;&#160;&#160;มีตารางใน schema แล้ว</text>
<text xml:space="preserve" text-anchor="start" x="1395.83" y="-10.09" font-family="Thonburi" font-size="9.00" fill="#701a75"> &#160;&#160;&#160;แต่ ingestion route ยังไม่อยู่ใน API ปัจจุบัน &#160;</text>
</g>
</g>
</svg>
